<svg xmlns="http://www.w3.org/2000/svg" version="1.1" xmlns:xlink="http://www.w3.org/1999/xlink" xmlns:svgjs="http://svgjs.dev/svgjs" viewBox="0 0 600 600" opacity="1"><path d="M259.8810271216835 482.33512480924156C183.69993199839246 477.31544097135094 108.40466298594129 260.2878988570931 159.4873351050819 192.9650686568978C210.57000722422254 125.6422384567025 439.1132925940956 140.70128997037438 464.211715598246 213.0438040084603C489.31013860239636 285.38631804654625 336.0621222449745 487.3548086471322 259.8810271216835 482.33512480924156C183.69993199839246 477.31544097135094 108.40466298594129 260.2878988570931 159.4873351050819 192.9650686568978 " fill="url(&quot;#ssshape-pattern6&quot;)" transform="matrix(-1.0942519046484378,6.199526729611112e-16,-6.199526729611112e-16,-1.0942519046484378,633.5966417716202,645.9118345139822)" stroke-width="10" stroke="hsl(315, 75%, 50%)" stroke-opacity="0.43"></path><defs><pattern id="ssshape-pattern6" width="40" height="40" patternUnits="userSpaceOnUse" patternTransform="scale(1.5) rotate(38)">
  <rect width="100%" height="100%" fill="hsla(180, 75%, 20%,5%)"></rect>
  <polygon points="30 22 38 38 22 38" fill="hsl(115, 15%, 50%)"></polygon>
  <polygon transform="translate(11.000000, 10.000000) scale(1, -1) translate(-11.000000, -10.000000) " points="11 2 19 18 3 18" fill="hsl(115, 15%, 50%)" fill-opacity="0.5"></polygon>
</pattern></defs><path d="M259.9243577740342 485.76058420896413C183.7432626507432 480.7409003710735 108.44799363829202 263.7133582568157 159.53066575743264 196.39052805662038C210.61333787657327 129.06769785642507 439.1566232464463 144.12674937009695 464.2550462505967 216.46926340818288C489.3534692547471 288.8117774462688 336.1054528973252 490.78026804685476 259.9243577740342 485.76058420896413C183.7432626507432 480.7409003710735 108.44799363829202 263.7133582568157 159.53066575743264 196.39052805662038 " fill-opacity="1" fill="hsla(180, 75%, 20%,10%)" opacity="1" stroke-opacity="0.43" stroke-width="0" stroke="hsl(315, 75%, 50%)" transform="matrix(-1.0942519046484378,6.199526729611112e-16,-6.199526729611112e-16,-1.0942519046484378,702.2478425812777,698.9933413761837)"></path></svg>