<svg xmlns="http://www.w3.org/2000/svg" version="1.1" xmlns:xlink="http://www.w3.org/1999/xlink" xmlns:svgjs="http://svgjs.dev/svgjs" viewBox="0 0 600 600"><path d="M476.7036352156084 407.2908319609815C475.3256826399248 374.21997014457526 472.3729187645993 379.14123479301276 490.8768529890459 334.06249944145026C509.38078721349257 288.98376408988776 564.4988927839678 134.6530654407992 587.7272405622881 136.8184198516065C610.9555883406084 138.98377426241382 601.9004863101723 347.8420277414177 630.2469396589678 347.054625906294C658.5933930077633 346.2672240711703 731.6248642602047 131.10975591117682 757.8059606550615 132.09400884086432C783.9870570499182 133.07826177055182 756.231151898551 299.02313939506354 787.3335180281084 352.960143484419C818.4358841576657 406.8971475737745 943.0422023135902 422.2514744577263 944.4201574324053 455.71603337699713C945.7981125512204 489.18059229626795 844.4201472598792 559.4561558542077 795.601248740999 553.747497000041C746.7823502221189 548.0388381458745 700.9162130354326 425.0073846953565 651.506766319124 421.46408025199713C602.0973196028154 417.92077580863776 528.2784236270668 534.8498783883874 499.1445684431475 532.487670339885C470.0107132592282 530.1254622913823 478.081587791292 440.36169377738776 476.7036352156084 407.2908319609815C475.3256826399248 374.21997014457526 472.3729187645993 379.14123479301276 490.8768529890459 334.06249944145026 " fill="url(&quot;#ssshape-pattern9&quot;)" transform="matrix(2.514331237837483,0,0,2.514331237837483,-893.5506934163208,-521.285855564)" stroke-width="10" stroke="hsl(205, 69%, 50%)" stroke-opacity="0.28"></path><defs><pattern id="ssshape-pattern9" x="0" y="126" patternUnits="userSpaceOnUse" width="40" height="64" viewBox="0 0 10 16">
  <rect width="100%" height="100%" fill="none"></rect>
  <g id="cube2">
    <path class="left-shade" d="M0 0l5 3v5l-5 -3z" fill="hsl(180, 69%, 40%)" fill-opacity="0.75"></path>
    <path class="right-shade" d="M10 0l-5 3v5l5 -3" fill="hsl(180, 69%, 40%)"></path>
  </g>
  <use x="5" y="8" xlink:href="#cube2"></use>
  <use x="-5" y="8" xlink:href="#cube2"></use>
</pattern></defs></svg>